<svg width="512" height="512" viewBox="0 0 512 512" fill="none" xmlns="http://www.w3.org/2000/svg">
<g clip-path="url(#clip0_25514_3)">
<path d="M174.165 170.667C161.804 170.491 149.892 166.01 140.48 157.995C120.827 139.974 108.922 115.039 107.264 88.4266C102.08 35.2213 131.093 3.86126 162.432 0.362595C169.983 -0.479511 177.627 0.20858 184.906 2.38579C192.185 4.56299 198.951 8.18467 204.8 13.0346C213.531 20.9015 220.619 30.4179 225.657 41.0356C230.695 51.6534 233.583 63.1628 234.155 74.9013C238.933 124.459 212.523 170.667 174.165 170.667ZM60.864 298.667C49.5121 298.407 38.674 293.883 30.5066 285.995C12.4478 267.192 1.83407 242.47 0.639985 216.427C-4.05335 163.221 22.1013 131.861 50.368 128.363C57.2584 127.575 64.2375 128.301 70.8183 130.49C77.3991 132.679 83.4229 136.277 88.4693 141.035C104.699 157.635 114.142 179.699 114.944 202.901C119.232 252.459 92.992 298.667 60.864 298.667ZM337.835 170.667C299.221 170.667 273.109 124.459 277.952 74.8373C278.523 63.0988 281.411 51.5894 286.449 40.9716C291.487 30.3539 298.576 20.8375 307.307 12.9706C313.149 8.14871 319.9 4.54832 327.159 2.38264C334.418 0.21697 342.038 -0.46994 349.568 0.362595C380.907 3.86126 409.92 35.2213 404.736 88.4266C403.077 115.045 391.172 139.986 371.52 158.016C362.102 166.017 350.192 170.49 337.835 170.667ZM449.131 298.667C408.896 298.667 388.821 252.459 393.344 202.837C394.241 179.487 404.015 157.359 420.672 140.971C425.957 136.178 432.203 132.568 438.995 130.383C445.786 128.198 452.965 127.487 460.053 128.299C489.237 131.797 516.267 163.157 511.445 216.363C510.09 242.589 499.062 267.383 480.491 285.952C471.949 293.89 460.789 298.415 449.131 298.667ZM341.333 512C323.101 512.359 305.095 507.907 289.131 499.093C278.916 493.712 267.545 490.9 256 490.9C244.455 490.9 233.084 493.712 222.869 499.093C158.592 535.083 83.6693 495.509 85.3333 405.333C85.3333 306.432 181.483 213.333 256 213.333C330.517 213.333 426.667 306.432 426.667 405.333C426.667 468.139 391.573 512 341.333 512Z" fill="#F78CB6"/>
</g>
<defs>
<clipPath id="clip0_25514_3">
<rect width="512" height="512" fill="white"/>
</clipPath>
</defs>
</svg>
